<svg width="134" height="69" viewBox="0 0 134 69" fill="none" xmlns="http://www.w3.org/2000/svg">
<path fill-rule="evenodd" clip-rule="evenodd" d="M115.174 0.257395C114.48 0.441991 114.301 0.601182 114.301 1.03517C114.301 1.60504 114.641 1.9416 115.229 1.95209C115.681 1.96002 115.833 2.77788 115.43 3.0338C115.257 3.14335 114.55 3.39926 113.859 3.60274C112.827 3.9062 112.567 3.91716 112.407 3.6645C112.108 3.19299 112.168 2.77345 112.554 2.62522C112.994 2.456 113.013 1.40296 112.579 1.23608C112.068 1.04006 110.342 1.58966 110.342 1.94813C110.342 2.61939 110.643 3.007 111.166 3.007C111.678 3.007 112.196 3.79246 111.887 4.10152C111.73 4.25885 109.201 4.86298 108.678 4.86788C108.045 4.87394 107.927 4.12273 108.495 3.69411C108.872 3.40929 108.957 3.17994 108.831 2.78464C108.681 2.31056 108.563 2.27164 107.698 2.40916C106.477 2.60308 106.128 2.94546 106.408 3.67453C106.558 4.06493 106.751 4.19126 107.069 4.10828C107.335 4.03859 107.57 4.13019 107.648 4.33367C107.883 4.94526 107.791 5.10468 107.201 5.10468C106.791 5.10468 106.452 5.35944 106.04 5.97872C105.07 7.43498 104.2 7.83238 99.0239 9.18725C96.3469 9.88811 88.707 11.883 82.0466 13.6208C75.3861 15.3586 66.5771 17.667 62.471 18.7506C58.3648 19.8342 54.6748 20.7208 54.271 20.7208C53.4205 20.7208 52.6804 20.0453 52.4675 19.075C52.3814 18.6825 52.5234 17.7943 52.8262 16.834C53.5073 14.6732 53.5236 12.0793 52.8641 10.7855C51.7663 8.63159 49.4587 7.57622 46.9512 8.08107C44.02 8.67145 41.9478 9.80723 37.1679 13.4435C33.3377 16.3576 31.5554 17.0743 28.1344 17.0773C25.9628 17.0792 25.1102 16.9137 20.4493 15.5857C15.1035 14.0623 11.8082 13.8026 8.51547 14.6457C3.81289 15.8493 1.11774 18.6133 0.263763 23.1073C-0.72552 28.3154 1.121 35.8836 4.91372 42.1638C7.37994 46.2482 12.5851 51.2631 16.3121 53.1461C17.9512 53.974 20.8098 54.7499 22.2217 54.7499C24.2264 54.7499 27.5161 53.6887 28.9495 52.5798L29.4152 52.2194L28.9495 52.0649C28.6933 51.9798 27.7427 51.5563 26.8372 51.1237C22.6009 49.1006 20.2772 45.3374 20.4816 40.8311C20.6006 38.2078 21.613 36.2353 23.6346 34.6877C26.0114 32.8678 27.1316 32.5515 31.7638 32.3923C35.6681 32.2581 35.7587 32.2432 36.5982 31.6024C37.609 30.8307 38.098 29.9245 38.9483 27.2469C39.2943 26.1573 39.8393 24.8642 40.159 24.3733C41.3136 22.6024 43.5167 22.1929 47.2307 23.059C48.3194 23.3128 50.4242 23.5874 51.9079 23.6692C56.7716 23.9375 60.7362 23.1644 70.0531 20.1311C79.6288 17.0137 88.2545 14.3555 96.0195 12.1289C100.723 10.7801 111.16 7.99996 112.733 7.67668C115.001 7.21053 116.315 7.71257 118.267 9.79138L119.555 11.163L121.644 10.9889C123.703 10.8176 123.734 10.806 123.807 10.1713C123.933 9.07094 122.808 7.03525 121.203 5.46082C119.691 3.97706 119.202 2.90771 119.544 1.83136C119.728 1.25077 119.754 1.2468 117.91 2.07469C117.054 2.45927 116.323 2.77392 116.286 2.77392C116.249 2.77392 116.17 2.51963 116.11 2.20918C116.032 1.79966 116.121 1.6132 116.432 1.53162C116.919 1.40436 117.004 0.67833 116.583 0.256695C116.429 0.102865 116.246 -0.0120416 116.175 0.00101067C116.105 0.014296 115.654 0.129669 115.174 0.257395ZM35.8779 35.5316C34.0959 36.0118 32.9916 36.642 31.993 37.7482C30.5673 39.3275 30.1323 40.5456 30.1246 42.9796C30.116 45.5938 30.6814 47.0109 32.3589 48.5813C34.224 50.3273 35.2291 50.6737 38.3812 50.6564C41.2 50.6408 42.3092 50.3525 43.2771 49.3838C43.6886 48.972 43.7375 48.6005 43.7375 45.8856V42.8484L41.0011 42.9139L38.2648 42.9796L38.1895 43.9026C38.1006 44.9938 38.5316 45.4269 39.7065 45.4269C40.4743 45.4269 40.4771 45.4311 40.4771 46.5741C40.4771 47.6859 40.451 47.7301 39.6343 47.9998C37.8779 48.5799 35.4748 47.8183 34.5268 46.3811C32.7902 43.7478 33.5617 39.84 36.0754 38.5393C37.1104 38.0036 39.2314 38.1139 40.6558 38.7777C41.3304 39.0919 42.0291 39.2928 42.2084 39.224C42.3877 39.1553 42.7992 38.6982 43.1231 38.2085C43.6725 37.3776 43.6855 37.2951 43.3171 36.9711C42.2561 36.0386 39.5377 35.152 37.8458 35.1869C37.4357 35.1953 36.5503 35.3505 35.8779 35.5316ZM46.3423 40.9402C46.4107 46.1135 46.4489 46.5368 46.9238 47.408C47.6792 48.7937 48.5546 49.6146 49.9685 50.2623C51.0856 50.7741 51.4743 50.831 53.2663 50.7452C55.59 50.634 56.9864 50.0026 58.079 48.5688C59.2125 47.0815 59.3194 46.4105 59.3303 40.7071L59.3406 35.4046H57.594H55.8473V40.5439C55.8473 46.2427 55.7521 46.6972 54.3804 47.5339C53.4216 48.1192 52.2083 48.1131 51.2339 47.5185C49.9303 46.723 49.7924 46.0445 49.7924 40.4232V35.4046H48.0307H46.2687L46.3423 40.9402ZM62.6559 43.0379L62.7174 50.6711L64.4058 50.7396L66.0941 50.8082V43.1064V35.4046H64.3443H62.5946L62.6559 43.0379ZM68.423 36.8031V38.2015H70.6353H72.8477V44.5048V50.8082L74.5361 50.7396L76.2245 50.6711L76.2865 44.4363L76.3486 38.2015H78.4406H80.5328V36.8031V35.4046H74.4779H68.423V36.8031ZM84.5081 38.0267C83.9546 39.469 82.663 42.799 81.6383 45.4269C80.6136 48.0548 79.7247 50.3362 79.6633 50.4963C79.5247 50.8573 82.1996 50.9093 82.8547 50.5583C83.0901 50.4322 83.5277 49.6456 83.827 48.8102L84.3712 47.2915H87.3237H90.2759L90.7803 48.8088C91.0617 49.6549 91.4755 50.4285 91.7156 50.5569C92.1131 50.7699 94.9715 50.8967 94.9715 50.7014C94.9715 50.6539 93.7561 47.4812 92.2706 43.6508C90.7852 39.8205 89.465 36.398 89.3369 36.0456C89.1101 35.4219 89.0554 35.4046 87.3095 35.4046H85.5149L84.5081 38.0267ZM96.7766 43.0118L96.835 50.6711H98.495H100.155L100.113 48.2161C100.066 45.4625 100.177 44.9607 100.834 44.9607C101.718 44.9607 102.157 45.442 103.571 47.9609C104.556 49.7148 105.16 50.5469 105.516 50.6427C106.351 50.8664 108.944 50.8077 108.944 50.5651C108.944 50.1625 105.641 44.957 105.181 44.6347C104.753 44.3345 104.769 44.2979 105.525 43.8515C105.961 43.594 106.61 42.9996 106.968 42.5307C108.187 40.9306 107.975 38.1001 106.545 36.8963C105.2 35.7631 104.406 35.5764 100.444 35.461L96.7181 35.3524L96.7766 43.0118ZM103.726 38.6882C104.505 39.4203 104.505 40.9511 103.727 41.8562C103.225 42.4405 103.017 42.5074 101.69 42.5102L100.211 42.5134L100.142 40.7682C100.104 39.8081 100.135 38.7714 100.212 38.4644C100.346 37.9333 100.421 37.9123 101.759 38.0337C102.779 38.1262 103.32 38.3062 103.726 38.6882ZM88.3181 41.6394C88.8202 43.1458 89.2764 44.5093 89.3316 44.6694C89.4073 44.8887 88.9015 44.9607 87.2864 44.9607C85.667 44.9607 85.1674 44.8892 85.2496 44.6694C85.3097 44.5093 85.7629 43.1458 86.2568 41.6394C86.7508 40.133 87.2112 38.9008 87.2799 38.9008C87.3488 38.9008 87.816 40.133 88.3181 41.6394ZM50.8206 54.3819C49.3164 55.0376 48.4079 57.029 48.8551 58.691C49.1878 59.9277 50.3415 60.8796 52.2742 61.512C55.5437 62.5815 56.2186 63.25 56.0283 65.2305C55.9063 66.5019 55.3359 67.334 54.1706 67.9409C52.8567 68.625 50.366 68.1898 49.1725 67.0676C48.6655 66.5907 48.1608 66.6445 48.1639 67.175C48.1657 67.5015 49.3839 68.3644 50.3641 68.7334C51.342 69.1014 53.5365 69.065 54.471 68.6653C55.4174 68.2607 56.4212 67.2384 56.764 66.3303C57.1398 65.3351 57.0618 63.6472 56.6042 62.8699C56.1785 62.1469 54.4358 61.1996 52.199 60.4757C49.9722 59.755 49.077 58.1561 49.9538 56.4654C50.8539 54.7297 52.9419 54.2845 55.0877 55.3711C55.7621 55.7125 56.3792 55.927 56.4589 55.8473C56.7558 55.5501 56.3068 54.9893 55.4023 54.5274C54.3031 53.9661 51.9466 53.8915 50.8206 54.3819ZM64.1147 54.5996C62.4437 55.3804 61.6272 56.1549 60.8441 57.7019C60.2113 58.9518 60.1557 59.26 60.1557 61.5092C60.1557 63.5062 60.2458 64.1515 60.6461 65.0172C61.3436 66.5259 62.4344 67.6775 63.8215 68.3693C64.8191 68.8669 65.3368 68.966 66.8967 68.9573C68.9961 68.9459 70.1258 68.6238 71.3543 67.6861C71.9665 67.2186 72.1195 66.9802 71.9295 66.79C71.7394 66.5998 71.5638 66.6063 71.2692 66.8144C69.1768 68.2942 66.7462 68.6623 64.7483 67.8022C63.4086 67.2253 62.1223 65.9504 61.5199 64.6025C60.8892 63.1913 60.9449 59.8368 61.6237 58.3626C62.7413 55.9349 64.3445 54.9014 67.0257 54.8802C68.4938 54.8686 68.9891 54.973 70.1312 55.5342C71.0298 55.9759 71.5683 56.1237 71.721 55.9708C71.9879 55.7037 71.0108 54.9317 69.7248 54.394C68.3967 53.8386 65.5168 53.9442 64.1147 54.5996ZM75.6423 61.5092C75.6423 68.8121 75.6521 68.9676 76.1081 68.9676C76.5538 68.9676 76.5738 68.8121 76.5738 65.3549V61.7422H81.2315H85.8891V65.3712V69L86.4131 68.9256L86.9371 68.8511V61.5092C86.9371 54.3227 86.9273 54.1673 86.4713 54.1673C86.0295 54.1673 86.0023 54.3442 85.941 57.6051L85.8768 61.043H81.2252H76.5738V57.5469C76.5738 54.2062 76.5531 54.0507 76.1081 54.0507C75.6521 54.0507 75.6423 54.2062 75.6423 61.5092ZM95.6688 54.2684C93.7768 54.8446 91.9815 56.6115 91.3476 58.5221C90.8271 60.09 90.8318 62.7037 91.3579 64.3772C91.89 66.0705 93.2892 67.6906 94.8462 68.4161C96.172 69.0343 98.9408 69.1769 100.351 68.7C101.946 68.1607 103.294 66.9354 104.105 65.2873C104.807 63.8602 104.869 63.5521 104.869 61.5101C104.869 59.4718 104.806 59.1583 104.111 57.744C102.876 55.2326 100.907 54.0509 97.999 54.0759C97.0383 54.084 95.9897 54.1707 95.6688 54.2684ZM112.554 54.3388C109.603 55.4002 108.013 57.9641 108.013 61.6593C108.013 63.9965 108.676 65.7325 110.103 67.127C111.432 68.4262 112.876 68.9676 115.011 68.9676C117.891 68.9676 119.948 67.7519 121.178 65.3234C121.814 64.0655 121.869 63.7611 121.869 61.5092C121.869 59.2968 121.806 58.9334 121.213 57.7242C120.467 56.2041 119.075 54.9348 117.57 54.4034C116.427 53.9999 113.598 53.9633 112.554 54.3388ZM125.945 61.5092V68.9676H130C133.729 68.9676 134.05 68.9347 133.995 68.5597C133.942 68.1952 133.561 68.1451 130.406 68.0875L126.876 68.0232V61.0369C126.876 54.2062 126.866 54.0507 126.411 54.0507C125.955 54.0507 125.945 54.2062 125.945 61.5092ZM99.8232 55.1096C101.375 55.5708 102.476 56.5488 103.268 58.1689C104.119 59.9089 104.17 62.8727 103.381 64.6557C102.422 66.8214 100.794 67.995 98.4557 68.2071C95.6206 68.4644 93.1385 66.8464 92.3062 64.1982C91.7 62.269 91.866 59.694 92.7072 57.9781C94.0067 55.3273 96.7861 54.2069 99.8232 55.1096ZM117.759 55.4315C118.994 56.0619 120.231 57.5611 120.619 58.8968C121.052 60.3876 120.99 63.4917 120.506 64.5888C119.287 67.3484 116.391 68.7609 113.416 68.0465C110.793 67.4167 109.199 65.2773 108.997 62.1135C108.766 58.5186 110.333 55.9524 113.368 54.9532C114.29 54.6497 116.754 54.918 117.759 55.4315Z" fill="#3F3F3F"/>
</svg>
